<svg width="120" height="91" viewBox="0 0 120 91" fill="none" xmlns="http://www.w3.org/2000/svg">
<path d="M1.56154 3.20543C0.441843 3.50101 -0.226244 4.64832 0.0693388 5.76802C0.364915 6.88772 1.51222 7.5558 2.63192 7.26022L2.09673 5.23283L1.56154 3.20543ZM102.424 90.3287C103.217 91.1727 104.544 91.2139 105.388 90.4209L119.141 77.4981C119.985 76.7051 120.026 75.3781 119.233 74.5341C118.44 73.6902 117.113 73.6489 116.269 74.4419L104.044 85.9289L92.5574 73.7042C91.7644 72.8603 90.4374 72.819 89.5935 73.612C88.7495 74.405 88.7083 75.732 89.5013 76.576L102.424 90.3287ZM2.09673 5.23283L2.63192 7.26022C25.7477 1.15814 51.1268 4.02268 70.3876 17.0856C89.5585 30.0875 102.959 53.3903 101.856 88.8276L103.952 88.8928L106.048 88.9581C107.189 52.2874 93.2599 27.5307 72.7415 13.6148C52.313 -0.240033 25.6428 -3.15151 1.56154 3.20543L2.09673 5.23283Z" fill="#AA2C2E"/>
</svg>
