<svg width="82" height="82" viewBox="0 0 82 82" fill="none" xmlns="http://www.w3.org/2000/svg">
<path d="M38.3203 56.0078C38.3203 57.3885 39.4396 58.5078 40.8203 58.5078C42.201 58.5078 43.3203 57.3885 43.3203 56.0078L40.8203 56.0078L38.3203 56.0078ZM42.5881 23.866C41.6118 22.8897 40.0289 22.8897 39.0525 23.866L23.1426 39.7759C22.1663 40.7522 22.1663 42.3351 23.1426 43.3115C24.119 44.2878 25.7019 44.2878 26.6782 43.3115L40.8203 29.1693L54.9624 43.3115C55.9388 44.2878 57.5217 44.2878 58.498 43.3115C59.4743 42.3351 59.4743 40.7522 58.498 39.7759L42.5881 23.866ZM40.8203 56.0078L43.3203 56.0078L43.3203 25.6338L40.8203 25.6338L38.3203 25.6338L38.3203 56.0078L40.8203 56.0078Z" fill="#FFEFD6"/>
<circle cx="40.8204" cy="40.8204" r="40.3204" stroke="#FFEFD6"/>
</svg>
