<svg width="121" height="92" viewBox="0 0 121 92" fill="none" xmlns="http://www.w3.org/2000/svg">
<path d="M120.137 17.0456C120.929 16.2016 120.888 14.8751 120.044 14.0822L106.292 1.15889C105.448 0.365952 104.121 0.407352 103.328 1.25106L90.4048 15.0044C89.612 15.8484 89.6536 17.1748 90.4975 17.9678C91.3413 18.7606 92.6673 18.7196 93.4604 17.876L102.818 7.91967C102.523 40.4687 89.5143 62.1353 71.2912 74.4944C52.0304 87.5573 26.6511 90.4217 3.53537 84.3196C2.41572 84.0241 1.26825 84.6928 0.972688 85.8125C0.677408 86.9319 1.34534 88.079 2.46468 88.3747C26.5458 94.7316 53.2165 91.8204 73.645 77.9657C93.2223 64.6881 106.801 41.5409 107.015 7.59272L117.172 17.1377C118.016 17.9308 119.344 17.8895 120.137 17.0456Z" fill="#FFEFD6"/>
</svg>
