<svg width="161" height="115" viewBox="0 0 161 115" fill="none" xmlns="http://www.w3.org/2000/svg">
<g clip-path="url(#clip0_100_129)">
<path d="M75.8827 76.1608C75.9197 76.2718 75.8679 76.479 75.9271 76.6603C76.3784 78.0438 76.9185 79.4163 77.3328 80.8072C77.4068 81.0514 77.1737 81.2549 77.1035 81.2549H69.7898L64.3518 76.2755L63.2419 72.8425H58.1627L55.477 81.2364L50.9823 81.2216L49.066 79.4829C49.4692 81.1069 50.2313 82.6532 50.5716 84.292C53.2426 97.1769 44.9597 110.665 32.2302 113.946C20.6327 116.935 10.5815 110.75 3.97444 101.624C-2.44765 92.7525 -1.18617 79.3164 8.65414 73.538C17.7731 68.1813 26.3186 72.8388 32.5631 79.9194C35.3376 83.0675 37.0061 86.7336 36.8803 91.0027L37.4981 89.2936C40.5205 74.1521 28.9969 67.6708 19.4785 58.8738C13.848 53.6725 10.2486 48.3417 12.3276 40.2031C14.6138 31.2544 25.4234 25.894 33.0033 32.2828C34.7051 33.7181 37.1947 35.9526 38.6634 37.4767C43.6982 42.7076 42.015 51.8302 34.7346 53.7354C34.4572 53.8093 33.2623 54.0128 33.0033 54.0128C32.4965 54.0165 31.6346 53.6429 31.2277 53.3358C30.0291 52.4369 28.3495 50.8425 27.2397 49.7881C26.0374 48.6487 24.2839 47.1431 25.7933 45.4562C26.3186 44.8717 27.7207 44.7459 28.5234 44.4167C30.5766 43.5769 31.9194 41.6496 31.568 39.3708C28.4383 39.1821 25.8599 42.2526 25.194 45.0752C24.0583 49.8695 26.5739 54.2977 29.9033 57.542C33.5546 61.0971 37.3538 64.4006 40.9903 67.952C42.5477 69.4724 43.861 70.8856 45.1854 72.6243C45.4776 73.0053 45.8956 73.4677 45.977 73.9375L58.3921 36.9329C58.7916 36.489 60.349 38.3793 60.719 38.7086C62.036 39.8813 63.4454 40.9985 64.5552 42.4079C68.114 53.691 72.2758 65.0924 75.9049 76.1534L75.9308 37.7319C75.9641 37.6247 76.186 37.3768 76.2378 37.3768H83.1112L88.6566 42.4708L88.7897 71.5884L88.9747 71.8474L92.0933 72.0546L97.6312 77.156V80.9219C97.6312 80.9441 97.3205 81.2549 97.2983 81.2549H81.3392C79.5931 79.5014 77.5548 77.8477 75.9086 76.1571L75.8827 76.1608ZM36.81 65.1368C32.1673 60.3313 26.5887 55.992 22.0125 51.0089C19.3083 47.3429 17.8545 42.7187 19.7522 38.3349C21.1617 35.0832 24.0213 33.2668 27.6171 33.8809C32.6926 34.7466 34.2389 42.4005 29.5333 44.7866C28.3643 45.3785 25.416 45.3748 26.0337 47.4279C26.5147 49.0335 29.7775 47.9718 30.8651 47.4464C37.8902 44.0393 36.6731 33.929 29.7035 31.1323C21.5094 27.8473 13.234 34.5653 12.4941 42.8186C11.6099 52.6699 18.9347 57.1277 25.231 62.858C33.2105 70.1235 40.3133 76.0795 38.4081 88.2207C36.7804 98.5937 28.0795 107.298 17.0406 105.393C5.47639 103.396 -0.4167 88.439 7.38156 79.3682C12.7974 73.0719 24.3542 73.4418 27.2249 81.917C28.0018 84.2143 27.4839 85.7052 27.7835 87.7879C28.0277 89.497 30.2399 89.2936 30.6173 87.7509C31.9527 82.3351 28.3902 75.8686 23.5034 73.4529C16.3451 69.9126 7.54063 72.9831 3.42694 79.6271C-3.17273 90.2887 2.71666 104.875 14.6952 108.182C29.9958 112.407 44.1828 100.647 45.0744 85.3648C45.4702 78.5765 41.4601 69.9533 36.8063 65.1405L36.81 65.1368ZM82.7524 38.2683H76.5449V75.384C76.5449 75.4062 76.8556 75.7169 76.8778 75.7169H91.3978V72.6132H83.0853C83.0631 72.6132 82.7524 72.3061 82.7524 72.2802V38.2683ZM65.3506 75.7169H70.8922C70.9181 75.7169 71.3325 75.3988 71.1216 75.2693L58.6991 38.4903L46.395 75.7169H49.7208L52.3658 67.3934L62.0027 67.2861L64.607 75.125C64.6921 75.3359 65.1841 75.6836 65.3469 75.7169H65.3506ZM35.7594 94.3284C34.927 94.5355 34.0429 94.776 33.2401 94.2988C31.2757 92.3603 28.9119 90.7437 27.2175 88.5759C26.6293 87.1553 27.2434 86.138 27.0992 84.7064C26.9956 83.6964 26.5887 81.4879 25.5713 81.1365C20.5883 79.4163 14.6619 82.0354 11.9947 86.4192C9.4532 90.5957 9.25344 95.5936 11.0402 100.092C11.2622 100.654 12.1315 102.497 12.4719 102.87C13.012 103.458 15.1872 104.213 16.0159 104.424C23.1852 106.251 29.9625 103.114 34.0762 97.1991C34.7162 96.2779 35.1194 95.2532 35.7557 94.3358L35.7594 94.3284Z" fill="#7A8E5B"/>
<path d="M135.065 63.5275L134.3 67.3046C130.504 80.0711 115.869 86.2268 104.179 79.2239C98.364 75.7391 91.535 68.9138 89.7297 62.2032C85.6419 47.0136 99.6773 32.9598 114.896 37.2658C122.195 39.3338 132.328 48.8078 134.3 56.2065L135.065 59.9836V37.2732C135.065 36.7072 135.872 37.2288 136.068 37.3805C137.514 38.4977 140.318 41.1834 141.495 42.5892C144.499 46.185 147.177 50.6538 150.044 54.4308C150.462 54.982 150.876 55.659 151.468 55.9957V37.3842H155.571L161.002 42.3709V81.2586C160.643 81.3103 160.499 81.2586 160.217 81.044C159.559 80.5446 158.723 79.727 158.112 79.1647C153.351 74.744 150.166 69.3799 146.149 64.3081C145.838 63.916 145.416 63.4092 145.039 63.091L144.817 81.2623H140.714C140.644 81.2623 139.775 80.5187 139.605 80.3781C138.073 79.0833 136.656 77.3372 135.062 76.0573V63.5386L135.065 63.5275ZM108.19 37.214C88.5607 39.0341 82.9118 64.3895 99.5293 73.9042C114.726 82.6051 132.905 68.6068 128.358 51.734C126.032 43.096 117.275 36.3743 108.19 37.214ZM155.016 38.0464H152.134V60.0945C152.134 60.1426 151.753 60.5015 151.694 60.4275L135.953 38.9342V75.7169H138.835V54.0017L139.508 54.1386L155.02 74.8291V38.0464H155.016Z" fill="#7A8E5B"/>
<path d="M85.1716 18.7876C86.0631 20.7408 84.5131 22.0467 83.677 23.5708C82.7892 25.1911 81.0801 28.6056 82.2084 30.2815C83.259 31.8463 84.6722 30.0854 85.3824 29.0385C87.2247 26.3231 87.4393 23.5005 88.7933 20.7038C89.2705 19.7124 90.0695 18.2105 91.405 18.8763C92.7405 19.5422 90.8575 21.9505 90.4728 22.8236C89.8291 24.2737 88.9153 26.6487 88.7563 28.1987C88.5343 30.3591 89.5035 32.5344 91.7379 30.7365C93.5876 29.2456 93.4212 27.4699 93.9502 25.4131C94.272 24.159 96.1217 19.4017 97.1649 18.8763C97.6347 18.6396 98.3635 18.7099 98.6114 19.2093C99.2181 20.419 97.5385 22.2908 96.9836 23.3489C96.3437 24.5696 94.9379 27.3368 94.9342 28.6278C94.9305 30.0484 95.9663 31.3358 97.4461 30.6773C99.6176 29.7118 99.9801 26.1086 101.153 25.5204C101.56 25.3169 102.544 25.2762 102.684 25.7682C103.287 27.8621 101.16 30.9584 99.366 31.9314C97.4461 32.9783 94.2239 32.8969 93.8392 30.2852C93.2066 30.3221 93.0327 31.0435 92.4963 31.4911C89.8735 33.6701 86.9029 32.2828 86.9695 28.9571C86.1371 29.7302 85.6414 30.7587 84.7609 31.5096C82.841 33.1448 80.5733 32.9709 80.0998 30.2852C78.3832 32.1644 74.9539 34.3692 72.7861 31.9499C70.4518 29.3418 72.1868 24.3625 74.0217 21.8802C75.9713 19.2463 79.7039 16.9379 82.2084 20.3154C83.0481 19.1686 83.6067 18.4842 85.1827 18.7839L85.1716 18.7876ZM78.6977 21.255C76.7666 21.5954 74.7431 24.1368 73.9958 25.8607C73.4261 27.1777 73.0155 29.1125 73.6111 30.4553C74.4249 32.2865 76.811 31.247 77.9874 30.2926C80.0997 28.5798 79.826 27.1333 80.4142 24.7435C80.6695 23.7114 81.413 22.9345 80.6399 21.8802C80.1626 21.2291 79.4561 21.1219 78.6977 21.255Z" fill="#FFEFD6"/>
<path d="M36.8102 65.1373C41.4603 69.9501 45.4741 78.5733 45.0783 85.3616C44.1867 100.644 29.9997 112.404 14.6991 108.179C2.72058 104.872 -3.17251 90.2855 3.43085 79.6239C7.54455 72.9836 16.3453 69.9131 23.5073 73.4497C28.3942 75.8654 31.9566 82.3319 30.6212 87.7477C30.2401 89.2904 28.0316 89.4901 27.7875 87.7847C27.4878 85.7057 28.0094 84.2111 27.2289 81.9138C24.3582 73.4386 12.8013 73.0687 7.38547 79.365C-0.412786 88.4358 5.4803 103.389 17.0445 105.39C28.0834 107.299 36.7843 98.5942 38.412 88.2176C40.3172 76.0763 33.2144 70.1203 25.2349 62.8548C18.9386 57.1245 11.6175 52.6667 12.498 42.8154C13.2379 34.5621 21.5133 27.8404 29.7074 31.1291C36.677 33.9258 37.8941 44.0361 30.869 47.4433C29.7814 47.9686 26.5223 49.0303 26.0377 47.4248C25.4199 45.3716 28.3683 45.3753 29.5373 44.7834C34.2429 42.3973 32.6965 34.7434 27.621 33.8777C24.0252 33.2636 21.1619 35.08 19.7561 38.3317C17.8584 42.7155 19.3122 47.3397 22.0165 51.0057C26.5926 55.9888 32.1675 60.3281 36.8139 65.1336L36.8102 65.1373Z" fill="#FFEFD6"/>
<path d="M65.3503 75.7171C65.1875 75.6838 64.6955 75.3361 64.6104 75.1252L62.0061 67.2863L52.3692 67.3935L49.7242 75.7171H46.3984L58.7025 38.4905L71.125 75.2695C71.3358 75.3989 70.9215 75.7171 70.8956 75.7171H65.354H65.3503ZM54.045 64.4156C55.669 64.6782 58.6692 64.4156 60.4745 64.4156C60.5115 64.4156 61.1996 64.1603 60.9998 63.8976C59.7198 60.6866 59.0207 57.0575 57.7185 53.8761C57.6186 53.6282 57.4928 53.2324 57.1525 53.336C56.6272 53.4951 54.156 62.5252 53.5308 63.6831L53.4938 64.1899C53.7417 64.1122 53.9599 64.4008 54.045 64.4156Z" fill="#FFEFD6"/>
<path d="M155.016 38.0464V74.8291L139.504 54.1386L138.831 54.0017V75.7169H135.949V38.9342L151.69 60.4275C151.749 60.5015 152.13 60.1426 152.13 60.0945V38.0464H155.012H155.016Z" fill="#FFEFD6"/>
<path d="M108.189 37.2143C117.274 36.3709 126.031 43.0963 128.357 51.7343C132.904 68.6071 114.725 82.6091 99.5283 73.9045C82.9108 64.3898 88.5597 39.0344 108.189 37.2143ZM121.036 44.5501C112.154 36.2118 97.2939 39.6892 93.3836 51.2238C88.9777 64.2196 100.553 76.5829 113.789 73.1721C126.415 69.9203 130.525 53.4582 121.036 44.5501Z" fill="#FFEFD6"/>
<path d="M82.7525 38.2688V72.2807C82.7525 72.3029 83.0632 72.6136 83.0854 72.6136H91.3979V75.7174H76.8779C76.8557 75.7174 76.5449 75.4103 76.5449 75.3844V38.2688H82.7525Z" fill="#FFEFD6"/>
<path d="M54.0453 64.4158C53.9566 64.401 53.742 64.1125 53.4941 64.1902L53.5311 63.6834C54.1563 62.5255 56.6275 53.4953 57.1528 53.3363C57.4969 53.2327 57.6189 53.6285 57.7188 53.8764C59.021 57.0578 59.7202 60.6869 61.0001 63.8979C61.1999 64.1606 60.5118 64.4158 60.4748 64.4158C58.6695 64.4158 55.6694 64.6785 54.0453 64.4158Z" fill="#7A8E5B"/>
<path d="M121.037 44.5501C130.526 53.4581 126.416 69.9202 113.79 73.172C100.554 76.5828 88.9782 64.2195 93.3841 51.2237C97.2944 39.6891 112.155 36.208 121.037 44.5501ZM121.473 67.6747C126.013 62.429 126.941 54.7825 123.36 48.7488C122.639 47.5317 122.021 47.2543 120.719 46.7364C107.172 41.3279 93.8836 55.1376 99.8765 68.4553C100.113 68.9843 100.89 70.5158 101.253 70.8451C101.723 71.2705 103.31 71.8883 103.972 72.1176C110.231 74.2966 116.753 72.6208 121.177 67.8005C121.244 67.7265 121.418 67.7376 121.473 67.671V67.6747Z" fill="#7A8E5B"/>
</g>
<path d="M129.193 67.3516C129.318 67.4558 129.438 67.5684 129.522 67.6582C129.538 67.6748 129.551 67.6909 129.562 67.7041C129.558 69.1978 129.479 70.8938 129.437 72.6055C129.394 74.3512 129.392 76.1016 129.567 77.582C129.571 77.6107 129.577 77.6385 129.586 77.665C129.64 77.9747 129.795 78.6038 129.954 79.2021C130.137 79.8917 130.341 80.6139 130.44 80.9004L130.441 80.9014C130.927 82.2937 132.023 83.7884 133.304 85.0469C134.586 86.3065 136.1 87.3763 137.47 87.8838H137.471C138.981 88.4422 140.613 88.6634 142.223 88.8203C143.599 88.9545 144.946 89.0432 146.24 89.2412C145.8 89.6165 145.149 89.7516 144.315 89.7666C143.757 89.7766 143.169 89.733 142.569 89.6982C142.056 89.6685 141.531 89.6451 141.048 89.6807L140.844 89.7002C136.901 90.1456 132.865 92.7667 131.118 96.3936C130.966 96.7025 130.579 97.7638 130.24 98.7402C130.068 99.2366 129.904 99.7246 129.782 100.104C129.722 100.294 129.671 100.459 129.635 100.587C129.617 100.65 129.601 100.708 129.59 100.757C129.582 100.789 129.564 100.865 129.564 100.938V110.763C129.552 110.777 129.539 110.794 129.522 110.812C129.448 110.891 129.345 110.988 129.235 111.082C129.223 110.402 129.251 109.706 129.279 108.993C129.316 108.057 129.352 107.093 129.281 106.155C129.197 105.023 129.014 103.4 128.758 101.804C128.503 100.215 128.169 98.6192 127.776 97.5596L127.775 97.5586C127.085 95.7062 125.612 93.8693 123.849 92.4395C122.086 91.01 119.984 89.948 117.998 89.7002H117.999C117.408 89.6248 116.802 89.628 116.212 89.6475C115.61 89.6673 115.042 89.7034 114.47 89.7021C113.772 89.7007 113.122 89.6412 112.527 89.4424L120.244 88.0605C120.265 88.0568 120.286 88.0517 120.307 88.0449C122.977 87.1469 124.973 85.7473 126.472 83.4121L126.765 82.9326C128.255 80.3791 128.595 77.6435 128.711 74.9141C128.82 72.3409 128.733 69.8153 129.154 67.3213C129.167 67.3315 129.181 67.3409 129.193 67.3516Z" fill="#E29527" stroke="#7A8E5B" stroke-width="0.873418" stroke-linejoin="round"/>
<path d="M37.9189 0.678711C38.043 0.782241 38.162 0.894203 38.2461 0.983398C38.2614 0.999693 38.2737 1.01536 38.2852 1.02832C38.2807 2.51191 38.2009 4.19638 38.1592 5.89648C38.1166 7.63092 38.1161 9.36983 38.29 10.8408C38.2935 10.8702 38.2997 10.8987 38.3086 10.9258C38.3628 11.2344 38.5157 11.8582 38.6729 12.4512C38.8544 13.136 39.0578 13.8528 39.1562 14.1377V14.1387C39.6383 15.5225 40.7256 17.0082 41.9961 18.2588C43.2678 19.5105 44.771 20.5737 46.1299 21.0781L46.1309 21.0791C47.6296 21.634 49.2486 21.8538 50.8447 22.0098C52.2082 22.143 53.5423 22.2297 54.8242 22.4258C54.3882 22.7956 53.7447 22.9295 52.9209 22.9443C52.3672 22.9543 51.7848 22.9105 51.1895 22.876C50.6079 22.8423 50.0101 22.8173 49.4775 22.8779C45.5651 23.3206 41.5615 25.9258 39.8281 29.5303C39.6772 29.8374 39.2928 30.8914 38.957 31.8613C38.7863 32.3544 38.6234 32.8394 38.5029 33.2168C38.4429 33.4049 38.3924 33.5695 38.3564 33.6963C38.3386 33.7593 38.3238 33.8177 38.3125 33.8662C38.3051 33.8981 38.2871 33.9735 38.2871 34.0459V43.8057C38.2752 43.8193 38.2624 43.836 38.2461 43.8535C38.1735 43.9312 38.0735 44.0247 37.9678 44.1162C37.9561 43.4434 37.9842 42.7538 38.0117 42.0488C38.048 41.1188 38.0829 40.1617 38.0127 39.2295C37.9291 38.1044 37.7476 36.4917 37.4932 34.9053C37.24 33.3267 36.9094 31.7414 36.5195 30.6885V30.6875C35.8342 28.8465 34.3726 27.0215 32.623 25.6006C30.874 24.1801 28.7888 23.1242 26.8184 22.8779H26.8193C26.2324 22.803 25.6309 22.8059 25.0459 22.8252C24.4486 22.8449 23.8856 22.8811 23.3184 22.8799C22.6304 22.8784 21.99 22.8196 21.4033 22.625L29.0469 21.2549C29.068 21.2511 29.0891 21.2451 29.1094 21.2383C31.9354 20.2863 33.9993 18.7676 35.5166 16.1582C36.9948 13.6207 37.3323 10.9022 37.4473 8.19043C37.5555 5.63597 37.4687 3.12883 37.8857 0.65332C37.8964 0.662005 37.9081 0.669666 37.9189 0.678711Z" fill="#E29527" stroke="#7A8E5B" stroke-width="0.873418" stroke-linejoin="round"/>
<defs>
<clipPath id="clip0_100_129">
<rect width="161" height="96.076" fill="white" transform="translate(0 18.6328)"/>
</clipPath>
</defs>
</svg>
