<svg width="16" height="16" viewBox="0 0 16 16" fill="none" xmlns="http://www.w3.org/2000/svg">
<rect width="16" height="16" fill="#E29527"/>
<path d="M8.2314 4.88262C8.24426 4.99442 8.4062 5.60281 8.45504 5.74581C8.69409 6.44001 9.55262 7.2772 10.2312 7.532C10.9946 7.818 11.8943 7.7634 12.6989 7.9194C12.4341 8.455 11.609 8.1794 11.0898 8.2392C10.0898 8.3536 9.0668 9.02959 8.62726 9.95519C8.55528 10.1034 8.2314 11.0498 8.2314 11.1122V13.759C8.2314 13.7928 7.96665 14.045 7.92295 13.993C7.8921 13.5068 7.96408 12.992 7.92809 12.5084C7.88439 11.913 7.73788 10.795 7.53995 10.2542C7.19551 9.31819 6.05423 8.364 5.06717 8.2392C4.48368 8.1638 3.80765 8.3978 3.30127 8L5.65067 7.5736C6.37554 7.3266 6.89734 6.93661 7.28291 6.26581C8.03605 4.95802 7.63763 3.45003 7.92295 2.00704C7.96408 1.95504 8.2314 2.20723 8.2314 2.24103C8.2314 3.05483 8.14144 4.11822 8.2314 4.88782V4.88262Z" fill="#E29527" stroke="#012B12" stroke-width="0.5" stroke-linejoin="round"/>
</svg>
