<svg width="108" height="15" viewBox="0 0 108 15" fill="none" xmlns="http://www.w3.org/2000/svg">
<path d="M107 8.36397C107.552 8.36397 108 7.91625 108 7.36397C108 6.81168 107.552 6.36397 107 6.36397V7.36397V8.36397ZM0.292892 6.65686C-0.0976334 7.04739 -0.0976334 7.68055 0.292892 8.07107L6.65685 14.435C7.04737 14.8256 7.68054 14.8256 8.07106 14.435C8.46159 14.0445 8.46159 13.4113 8.07106 13.0208L2.41421 7.36397L8.07106 1.70711C8.46159 1.31659 8.46159 0.683424 8.07106 0.2929C7.68054 -0.0976243 7.04737 -0.0976243 6.65685 0.2929L0.292892 6.65686ZM107 7.36397V6.36397L0.999992 6.36397V7.36397V8.36397L107 8.36397V7.36397Z" fill="#1A458A"/>
</svg>
