<svg width="108" height="15" viewBox="0 0 108 15" fill="none" xmlns="http://www.w3.org/2000/svg">
<path d="M107 8.36395C107.552 8.36395 108 7.91624 108 7.36395C108 6.81167 107.552 6.36395 107 6.36395V7.36395V8.36395ZM0.292892 6.65685C-0.0976334 7.04737 -0.0976334 7.68054 0.292892 8.07106L6.65685 14.435C7.04737 14.8255 7.68054 14.8255 8.07106 14.435C8.46159 14.0445 8.46159 13.4113 8.07106 13.0208L2.41421 7.36395L8.07106 1.7071C8.46159 1.31657 8.46159 0.683409 8.07106 0.292885C7.68054 -0.0976396 7.04737 -0.0976396 6.65685 0.292885L0.292892 6.65685ZM107 7.36395V6.36395L0.999992 6.36395V7.36395V8.36395L107 8.36395V7.36395Z" fill="#AA2C2E"/>
</svg>
