<svg width="224" height="224" viewBox="0 0 224 224" fill="none" xmlns="http://www.w3.org/2000/svg">
<circle cx="112" cy="112" r="110.5" fill="#1A458A" stroke="#FFEFD6" stroke-width="3"/>
<path d="M80.3837 54.712C80.5822 55.0732 79.8951 55.8306 78.3224 56.9842C76.7497 58.1378 75.1159 59.1803 73.4211 60.1116C71.7263 61.0429 70.5892 61.5411 70.01 61.6062C69.4308 61.6713 69.0267 61.4954 68.7977 61.0786L54.072 34.2808C53.3392 32.9472 56.9737 30.0818 64.9755 25.6847C69.8099 23.0282 73.1883 21.6058 75.1107 21.4176C77.4275 21.1574 79.2857 21.5108 80.6854 22.4781C82.5211 23.7121 84.1794 25.6767 85.6604 28.3717C87.691 32.067 88.5253 35.0993 88.1633 37.4687C87.9182 39.195 87.4364 40.4907 86.718 41.3558C85.9996 42.2208 85.3806 42.9046 84.861 43.4072C84.3538 43.8667 83.6786 44.3825 82.8353 44.9544C81.6739 45.7373 80.0374 46.7089 77.9258 47.8693L76.9027 48.3772L80.3837 54.712ZM73.1427 41.4361L74.1429 40.8864C74.6708 40.5964 75.0494 40.2979 75.2787 39.991C75.4927 39.6564 75.5276 39.0946 75.3835 38.3056C75.2519 37.4736 74.8501 36.4463 74.1784 35.2238C73.4913 33.9735 72.8333 33.1052 72.2043 32.6189C71.5878 32.0894 71.1101 31.8455 70.7712 31.8871C70.4448 31.8855 70.101 31.984 69.7398 32.1825L68.4479 32.8925L73.1427 41.4361ZM120.463 46.715L100.349 48.1147C98.7995 48.2225 97.7481 48.1845 97.1951 48.0005C96.642 47.8165 96.349 47.4873 96.316 47.013L94.2263 16.9839C94.1691 16.1616 94.4921 15.5512 95.1953 15.1527C95.9301 14.752 97.2621 14.4845 99.1913 14.3502L118.262 13.0232C118.926 12.9769 119.335 14.0608 119.489 16.2746C119.641 18.4568 119.615 20.1429 119.412 21.3329C119.207 22.4912 118.867 23.0869 118.392 23.1199C116.337 23.263 112.859 23.2984 107.96 23.2262L108.182 26.4046C112.849 25.8891 115.894 25.5819 117.318 25.4828C118.171 25.4234 118.668 26.3899 118.806 28.3824C118.945 30.3748 118.877 31.905 118.601 32.9729C118.356 34.0069 117.948 34.5437 117.379 34.5834L108.779 34.9911L108.99 38.0272C114.465 37.2332 118.246 36.7635 120.333 36.6182C120.997 36.572 121.406 37.6558 121.56 39.8697C121.714 42.0835 121.689 43.7696 121.483 44.9279C121.278 46.0863 120.938 46.682 120.463 46.715ZM141.664 53.0545C141.547 53.3831 140.526 53.3224 138.599 52.8725C136.714 52.4033 134.845 51.8392 132.993 51.1802C131.171 50.5318 130.033 50.0426 129.578 49.7126C129.164 49.3633 129.026 48.9946 129.165 48.6063L136.02 29.3416L129.793 27.1254C129.464 27.0085 129.329 26.4894 129.388 25.568C129.447 24.6467 129.768 23.3647 130.353 21.7219C130.948 20.0493 131.659 18.6197 132.485 17.4331C133.322 16.2166 134.039 15.7146 134.636 15.9272L158.874 24.5527C159.322 24.7121 159.472 25.2366 159.323 26.126C159.205 27.0261 158.864 28.2676 158.301 29.8506C157.737 31.4336 157.042 32.8685 156.214 34.1554C155.385 35.4423 154.688 35.9847 154.12 35.7828L148.52 33.7898L141.664 53.0545Z" fill="#FFEFD6"/>
<path d="M97.1922 65.2986C100.313 65.2986 103.177 66.465 105.261 68.6201C107.346 70.7775 108.583 73.8575 108.583 77.5731C108.583 81.2705 107.362 84.9816 105.371 87.7905C103.389 90.5858 100.518 92.6361 97.1922 92.6361C93.8661 92.6361 90.9957 90.5858 89.0137 87.7905C87.0226 84.9816 85.8016 81.2705 85.8016 77.5754C85.8016 73.8575 87.0386 70.7775 89.1253 68.6201C91.2076 66.465 94.0712 65.2986 97.1922 65.2986ZM72.1328 85.8017C75.2538 85.8017 78.1174 86.9681 80.2019 89.1232C82.2864 91.2806 83.5234 94.3606 83.5234 98.0762C83.5234 101.774 82.3024 105.485 80.3113 108.294C78.3293 111.089 75.4589 113.139 72.1328 113.139C68.8067 113.139 65.9363 111.089 63.9543 108.294C61.9633 105.485 60.7422 101.771 60.7422 98.0785C60.7422 94.3606 61.9792 91.2806 64.066 89.1232C66.1482 86.9681 69.0118 85.8017 72.1328 85.8017ZM112 101.749C95.7706 101.749 82.3251 115.565 78.0924 132.891C76.2152 140.577 79.0788 148.821 86.141 152.728C91.752 155.836 100.149 158.702 111.998 158.702C123.849 158.702 132.246 155.836 137.859 152.728C144.919 148.821 147.783 140.577 145.905 132.893C141.675 115.565 128.227 101.749 112 101.749ZM151.867 85.8017C148.746 85.8017 145.883 86.9681 143.8 89.1232C141.714 91.2806 140.477 94.3606 140.477 98.0762C140.477 101.774 141.698 105.485 143.689 108.294C145.671 111.089 148.541 113.139 151.867 113.139C155.193 113.139 158.064 111.089 160.046 108.294C162.037 105.485 163.258 101.774 163.258 98.0785C163.258 94.3606 162.021 91.2806 159.936 89.1232C157.852 86.9681 154.988 85.8017 151.867 85.8017ZM126.808 65.2986C123.687 65.2986 120.823 66.465 118.741 68.6201C116.654 70.7775 115.417 73.8575 115.417 77.5731C115.417 81.2705 116.638 84.9816 118.629 87.7905C120.611 90.5858 123.482 92.6361 126.808 92.6361C130.134 92.6361 133.004 90.5858 134.986 87.7905C136.977 84.9816 138.198 81.2705 138.198 77.5754C138.198 73.8575 136.961 70.7775 134.877 68.6201C132.792 66.465 129.929 65.2986 126.808 65.2986Z" fill="black" fill-opacity="0.3"/>
<path d="M23.7495 146.237C23.4196 146.381 22.8655 145.772 22.0872 144.41C21.3185 143.069 20.6556 141.761 20.0985 140.486C19.5415 139.21 19.2583 138.351 19.2489 137.91C19.2396 137.469 19.3999 137.177 19.7298 137.033L40.6463 127.898C41.2181 127.648 41.7499 127.757 42.2416 128.223C42.7332 128.689 43.3248 129.714 44.0164 131.298L49.3616 143.537C49.5633 143.999 48.8283 144.595 47.1568 145.325C45.5072 146.045 44.1945 146.488 43.2187 146.652C42.2745 146.829 41.7303 146.752 41.5863 146.422L38.9915 139.581L36.7481 140.561C38.1575 143.428 39.0783 145.357 39.5105 146.347C39.6546 146.676 39.5747 146.973 39.2708 147.237C38.9765 147.523 38.3235 147.886 37.3118 148.328C36.3221 148.76 35.3173 149.068 34.2975 149.252C33.2997 149.426 32.7143 149.315 32.5414 148.919L30.3477 143.356L23.7495 146.237ZM39.118 171.938C38.8904 172.151 38.2059 171.789 37.0643 170.853C35.9228 169.916 34.8431 168.905 33.8252 167.82C32.8238 166.752 32.2365 166.003 32.0636 165.573C31.907 165.161 31.96 164.831 32.2226 164.585L49.1073 148.75C49.5625 148.323 50.4199 148.589 51.6796 149.546C52.9557 150.521 54.4147 151.883 56.0564 153.634C57.6982 155.385 58.7483 156.522 59.2069 157.046C59.6995 157.571 60.2478 158.209 60.852 158.958C61.4562 159.708 61.8858 160.341 62.1409 160.859C62.4124 161.394 62.6817 161.997 62.9488 162.668C63.2323 163.356 63.3479 163.988 63.2954 164.563C63.2605 165.123 63.1561 165.73 62.9822 166.387C62.6727 167.566 61.8177 168.812 60.4173 170.125C59.0343 171.422 57.6397 172.286 56.2336 172.716C54.8614 173.147 53.5691 173.208 52.3565 172.897C51.0759 177.882 50.0067 180.777 49.1489 181.581C48.2911 182.386 46.2451 181.063 43.0108 177.615C42.075 176.617 41.4703 175.884 41.1967 175.417C40.923 174.95 40.8857 174.524 41.0848 174.14L44.8935 167.36L44.5011 166.889L39.118 171.938ZM48.545 163.097L49.1853 163.779C50.1375 164.795 51.4014 164.564 52.977 163.086C53.7823 162.331 54.2199 161.657 54.2898 161.065C54.3762 160.491 54.2552 160.028 53.9268 159.678L53.1141 158.812L48.545 163.097ZM65.0227 194.925C64.892 195.154 64.1491 194.979 62.7939 194.401C61.4506 193.801 60.1325 193.133 58.8396 192.396C57.5676 191.671 56.784 191.156 56.4889 190.85C56.2057 190.523 56.1413 190.224 56.2957 189.952L67.3806 170.497C67.642 170.038 68.5021 169.934 69.9611 170.185C71.4319 170.416 72.9181 170.958 74.4195 171.814C75.7541 172.574 76.4695 173.355 76.5658 174.155C76.593 174.447 76.5471 174.697 76.4283 174.906L65.0227 194.925ZM93.4016 205.787L78.5612 202.216C77.4178 201.94 76.6675 201.674 76.3101 201.415C75.9527 201.156 75.8161 200.852 75.9004 200.502L81.2317 178.346C81.3777 177.739 81.7499 177.372 82.3484 177.245C82.9701 177.123 83.9927 177.233 85.4161 177.576L99.4864 180.961C99.9765 181.079 100.025 181.955 99.6319 183.588C99.2445 185.198 98.8419 186.41 98.4241 187.223C98.012 188.012 97.6309 188.365 97.2809 188.28C95.7642 187.915 93.2456 187.149 89.7252 185.981L89.1609 188.326C92.648 189.017 94.9166 189.489 95.9666 189.741C96.5966 189.893 96.7348 190.704 96.381 192.174C96.0273 193.644 95.6294 194.733 95.1875 195.441C94.7744 196.132 94.3579 196.427 93.9379 196.326L87.6364 194.661L87.0974 196.901C91.2305 197.575 94.0671 198.097 95.6071 198.468C96.0971 198.585 96.1456 199.461 95.7526 201.094C95.3595 202.728 94.957 203.939 94.5448 204.729C94.1327 205.518 93.7516 205.871 93.4016 205.787ZM116.22 206.233C116.255 206.543 115.544 206.877 114.087 207.234C112.654 207.59 111.21 207.85 109.755 208.014C108.301 208.178 107.361 208.2 106.937 208.079C106.513 207.958 106.28 207.718 106.24 207.361L103.757 185.397C103.69 184.8 104.307 184.175 105.61 183.521C106.937 182.863 108.47 182.436 110.211 182.24C110.831 182.17 111.299 182.141 111.614 182.154C112.439 182.181 113.069 182.629 113.505 183.498L117.983 192.339L118.126 192.322L117.172 183.88C117.104 183.284 117.722 182.659 119.025 182.004C120.327 181.35 121.849 180.924 123.59 180.727C125.092 180.557 126.079 180.736 126.549 181.262C126.881 181.635 127.066 181.989 127.103 182.323L129.635 204.716C129.67 205.026 128.959 205.36 127.502 205.718C126.069 206.073 124.47 206.351 122.705 206.55C120.964 206.747 119.985 206.628 119.766 206.194L115.445 197.77L115.266 197.79L116.22 206.233ZM152.065 198.467L144.56 202.447C143.521 202.998 142.782 203.295 142.342 203.338C141.903 203.381 141.594 203.232 141.414 202.893L130.771 182.825C130.479 182.273 130.504 181.757 130.847 181.277C131.178 180.775 131.916 180.22 133.061 179.613L140.217 175.818C144.288 173.659 147.525 172.975 149.927 173.766C152.319 174.535 154.633 177.029 156.871 181.249C159.108 185.468 159.877 188.864 159.176 191.436C158.464 193.987 156.094 196.33 152.065 198.467ZM142.349 180.759C141.84 181.029 141.523 181.252 141.399 181.426L148.213 194.275L149.489 193.762C150.125 193.424 150.332 192.662 150.11 191.476C149.91 190.278 149.146 188.429 147.819 185.927C146.492 183.425 145.435 181.84 144.646 181.171C143.857 180.503 143.091 180.366 142.349 180.759ZM175.347 184.457C174.531 185.337 173.941 185.885 173.575 186.103C173.192 186.304 172.886 186.299 172.658 186.086L156.24 170.859C155.853 170.5 155.948 169.639 156.525 168.275C157.085 166.896 157.952 165.572 159.127 164.306C160.172 163.179 161.095 162.661 161.896 162.749C162.186 162.789 162.42 162.891 162.595 163.054L174.288 173.9C176.139 171.622 177.57 169.938 178.582 168.847C178.924 168.478 179.685 168.84 180.864 169.933C182.025 171.01 182.955 172.02 183.653 172.961C184.35 173.903 184.577 174.506 184.332 174.77L175.347 184.457ZM199.102 150.195C199.381 150.335 199.278 151.102 198.792 152.496C198.306 153.891 197.734 155.242 197.077 156.55C196.43 157.837 195.945 158.641 195.623 158.962C195.279 159.273 194.935 159.342 194.592 159.169L188.995 156.356C178.176 156.237 172.392 155.989 171.641 155.611C171.191 155.385 171.08 154.43 171.309 152.745C171.538 151.06 172.051 149.425 172.849 147.838C173.873 145.801 175.017 145.019 176.283 145.494L185.372 148.975L185.55 148.621L177.43 143.774C176.851 143.429 176.751 142.426 177.13 140.763C177.488 139.089 178.001 137.588 178.669 136.258C179.337 134.929 179.994 134.104 180.638 133.783C181.283 133.462 181.82 133.41 182.249 133.625C182.656 133.83 186.408 138.416 193.506 147.382L199.102 150.195Z" fill="#FFEFD6"/>
</svg>
