<svg width="222" height="222" viewBox="0 0 222 222" fill="none" xmlns="http://www.w3.org/2000/svg">
<path d="M110.897 1.5C171.316 1.5 220.295 50.4789 220.295 110.897C220.295 171.316 171.316 220.295 110.897 220.295C50.4789 220.295 1.5 171.316 1.5 110.897C1.50009 50.479 50.479 1.50009 110.897 1.5Z" fill="black" stroke="#FFEFD6" stroke-width="3"/>
<path d="M110.897 195.118C157.411 195.118 195.118 157.411 195.118 110.898C195.118 64.3839 157.411 26.6771 110.897 26.6771C64.3835 26.6771 26.6768 64.3839 26.6768 110.898C26.6768 157.411 64.3835 195.118 110.897 195.118Z" fill="#FFEFD6"/>
<path d="M28.8458 108.803L28.9052 108.858C28.7542 111.553 29.341 119.51 37.6672 131.953C47.4046 146.504 68.2075 151.917 78.8224 152.126C90.048 152.346 93.2999 150.233 99.3263 151.024C105.353 151.814 111.342 155.653 111.342 155.653L99.2271 192.079C102.101 192.493 105.003 192.749 107.923 192.855L131.442 127.066C131.442 127.066 128.009 122.907 118.507 122.84C103.568 122.733 101.052 132.504 74.0073 129.123C46.9624 125.742 28.8458 108.803 28.8458 108.803Z" fill="black"/>
<path d="M53.5039 52.3004C51.3737 54.3888 49.3324 56.5971 47.4101 58.9463C36.2471 72.5883 30.0951 89.0082 29.043 105.735C31.0079 107.555 47.2297 122.006 71.681 126.139C97.7686 130.548 104.787 119.056 120.22 120.076C135.653 121.096 152.74 135.509 152.74 135.509L135.163 189.238C138.533 188.194 141.793 186.943 144.941 185.509L184.794 74.7833C178.29 71.7699 165.933 54.6696 150.499 52.6483C135.064 50.627 119.778 67.898 92.7701 67.3468C66.2759 66.8061 53.9661 52.8375 53.5044 52.3031L53.5039 52.3004Z" fill="#AA2C2E"/>
</svg>
