<svg width="640" height="196" viewBox="0 0 640 196" fill="none" xmlns="http://www.w3.org/2000/svg">
<rect x="21.0527" y="23.8142" width="36.9292" height="36.9292" stroke="white" stroke-width="1.0354"/>
<rect x="131.841" y="23.8142" width="36.9292" height="36.9292" stroke="white" stroke-width="1.0354"/>
<rect x="242.628" y="23.8142" width="36.9292" height="36.9292" stroke="white" stroke-width="1.0354"/>
<rect x="57.9824" y="23.8142" width="36.9292" height="36.9292" stroke="white" stroke-width="1.0354"/>
<rect x="168.77" y="23.8142" width="36.9292" height="36.9292" stroke="white" stroke-width="1.0354"/>
<rect x="279.558" y="23.8142" width="36.9292" height="36.9292" stroke="white" stroke-width="1.0354"/>
<rect x="94.9111" y="23.8142" width="36.9292" height="36.9292" stroke="white" stroke-width="1.0354"/>
<rect x="205.699" y="23.8142" width="36.9292" height="36.9292" stroke="white" stroke-width="1.0354"/>
<rect x="316.486" y="23.8145" width="36.9292" height="36.9292" stroke="white" stroke-width="1.0354"/>
<rect x="390" y="23.8145" width="36.9292" height="36.9292" stroke="white" stroke-width="1.0354"/>
<rect x="353.416" y="23.8145" width="36.9292" height="36.9292" stroke="white" stroke-width="1.0354"/>
<rect x="426.93" y="23.8145" width="36.9292" height="36.9292" stroke="white" stroke-width="1.0354"/>
<rect x="464" y="23.8145" width="36.9292" height="36.9292" stroke="white" stroke-width="1.0354"/>
<rect x="501" y="23.8145" width="36.9292" height="36.9292" stroke="white" stroke-width="1.0354"/>
<rect x="538" y="23.8145" width="36.9292" height="36.9292" stroke="white" stroke-width="1.0354"/>
<rect x="575" y="23.8145" width="36.9292" height="36.9292" stroke="white" stroke-width="1.0354"/>
<rect x="21.0527" y="60.7434" width="36.9292" height="36.9292" stroke="white" stroke-width="1.0354"/>
<rect x="131.841" y="60.7434" width="36.9292" height="36.9292" stroke="white" stroke-width="1.0354"/>
<rect x="242.628" y="60.7434" width="36.9292" height="36.9292" stroke="white" stroke-width="1.0354"/>
<rect x="57.9824" y="60.7434" width="36.9292" height="36.9292" stroke="white" stroke-width="1.0354"/>
<rect x="168.77" y="60.7434" width="36.9292" height="36.9292" stroke="white" stroke-width="1.0354"/>
<rect x="279.558" y="60.7434" width="36.9292" height="36.9292" stroke="white" stroke-width="1.0354"/>
<rect x="94.9111" y="60.7434" width="36.9292" height="36.9292" stroke="white" stroke-width="1.0354"/>
<rect x="205.699" y="60.7434" width="36.9292" height="36.9292" stroke="white" stroke-width="1.0354"/>
<rect x="316.486" y="60.7432" width="36.9292" height="36.9292" stroke="white" stroke-width="1.0354"/>
<rect x="390" y="60.7432" width="36.9292" height="36.9292" stroke="white" stroke-width="1.0354"/>
<rect x="353.416" y="60.7434" width="36.9292" height="36.9292" stroke="white" stroke-width="1.0354"/>
<rect x="21.0527" y="97.6726" width="36.9292" height="36.9292" stroke="white" stroke-width="1.0354"/>
<rect x="131.841" y="97.6726" width="36.9292" height="36.9292" stroke="white" stroke-width="1.0354"/>
<rect x="242.628" y="97.6726" width="36.9292" height="36.9292" stroke="white" stroke-width="1.0354"/>
<rect x="57.9824" y="97.6726" width="36.9292" height="36.9292" stroke="white" stroke-width="1.0354"/>
<rect x="168.77" y="97.6726" width="36.9292" height="36.9292" stroke="white" stroke-width="1.0354"/>
<rect x="279.558" y="97.6726" width="36.9292" height="36.9292" stroke="white" stroke-width="1.0354"/>
<rect x="94.9111" y="97.6726" width="36.9292" height="36.9292" stroke="white" stroke-width="1.0354"/>
<rect x="205.699" y="97.6726" width="36.9292" height="36.9292" stroke="white" stroke-width="1.0354"/>
<rect x="316.486" y="97.6726" width="36.9292" height="36.9292" stroke="white" stroke-width="1.0354"/>
<rect x="353.416" y="97.6729" width="36.9292" height="36.9292" stroke="white" stroke-width="1.0354"/>
<rect x="426.93" y="97.6729" width="36.9292" height="36.9292" stroke="white" stroke-width="1.0354"/>
<rect x="426.93" y="61" width="36.9292" height="36.9292" stroke="white" stroke-width="1.0354"/>
<rect x="390" y="97.6729" width="36.9292" height="36.9292" stroke="white" stroke-width="1.0354"/>
<rect x="464" y="97.6729" width="36.9292" height="36.9292" stroke="white" stroke-width="1.0354"/>
<rect x="501" y="97.6729" width="36.9292" height="36.9292" stroke="white" stroke-width="1.0354"/>
<rect x="538" y="97.6729" width="36.9292" height="36.9292" stroke="white" stroke-width="1.0354"/>
<rect x="575" y="97.6729" width="36.9292" height="36.9292" stroke="white" stroke-width="1.0354"/>
<rect x="464" y="61" width="36.9292" height="36.9292" stroke="white" stroke-width="1.0354"/>
<rect x="501" y="61" width="36.9292" height="36.9292" stroke="white" stroke-width="1.0354"/>
<rect x="538" y="61" width="36.9292" height="36.9292" stroke="white" stroke-width="1.0354"/>
<rect x="575" y="61" width="36.9292" height="36.9292" stroke="white" stroke-width="1.0354"/>
<rect x="21.0527" y="134.602" width="36.9292" height="36.9292" stroke="white" stroke-width="1.0354"/>
<rect x="206" y="134.602" width="36.9292" height="36.9292" stroke="white" stroke-width="1.0354"/>
<rect x="131.841" y="134.602" width="36.9292" height="36.9292" stroke="white" stroke-width="1.0354"/>
<rect x="316.787" y="134.602" width="36.9292" height="36.9292" stroke="white" stroke-width="1.0354"/>
<rect x="57.9824" y="134.602" width="36.9292" height="36.9292" stroke="white" stroke-width="1.0354"/>
<rect x="242.93" y="134.602" width="36.9292" height="36.9292" stroke="white" stroke-width="1.0354"/>
<rect x="168.77" y="134.602" width="36.9292" height="36.9292" stroke="white" stroke-width="1.0354"/>
<rect x="353.717" y="134.602" width="36.9292" height="36.9292" stroke="white" stroke-width="1.0354"/>
<rect x="390" y="134.602" width="36.9292" height="36.9292" stroke="white" stroke-width="1.0354"/>
<rect x="94.9111" y="134.602" width="36.9292" height="36.9292" stroke="white" stroke-width="1.0354"/>
<rect x="279.858" y="134.602" width="36.9292" height="36.9292" stroke="white" stroke-width="1.0354"/>
</svg>
