<svg width="1920" height="2325" viewBox="0 0 1920 2325" fill="none" xmlns="http://www.w3.org/2000/svg">
<g clip-path="url(#clip0_105_505)">
<line x1="21.5" y1="3.02528e-07" x2="21.5" y2="3036" stroke="#FFEFD6" stroke-width="3"/>
<line x1="96.5" y1="3.02528e-07" x2="96.5" y2="3036" stroke="#FFEFD6" stroke-width="3"/>
<line x1="171.5" y1="3.02528e-07" x2="171.5" y2="3036" stroke="#FFEFD6" stroke-width="3"/>
<line x1="246.5" y1="3.02528e-07" x2="246.5" y2="3036" stroke="#FFEFD6" stroke-width="3"/>
<line x1="321.5" y1="3.02528e-07" x2="321.5" y2="3036" stroke="#FFEFD6" stroke-width="3"/>
<line x1="396.5" y1="3.02528e-07" x2="396.5" y2="3036" stroke="#FFEFD6" stroke-width="3"/>
<line x1="471.5" y1="3.02528e-07" x2="471.5" y2="3036" stroke="#FFEFD6" stroke-width="3"/>
<line x1="546.5" y1="3.02528e-07" x2="546.5" y2="3036" stroke="#FFEFD6" stroke-width="3"/>
<line x1="621.5" y1="3.02528e-07" x2="621.5" y2="3036" stroke="#FFEFD6" stroke-width="3"/>
<line x1="696.5" y1="3.02528e-07" x2="696.5" y2="3036" stroke="#FFEFD6" stroke-width="3"/>
<line x1="771.5" y1="3.02528e-07" x2="771.5" y2="3036" stroke="#FFEFD6" stroke-width="3"/>
<line x1="846.5" y1="3.02528e-07" x2="846.5" y2="3036" stroke="#FFEFD6" stroke-width="3"/>
<line x1="921.5" y1="3.02528e-07" x2="921.5" y2="3036" stroke="#FFEFD6" stroke-width="3"/>
<line x1="996.5" y1="3.02528e-07" x2="996.5" y2="3036" stroke="#FFEFD6" stroke-width="3"/>
<line x1="1071.5" y1="3.02528e-07" x2="1071.5" y2="3036" stroke="#FFEFD6" stroke-width="3"/>
<line x1="1146.5" y1="3.02528e-07" x2="1146.5" y2="3036" stroke="#FFEFD6" stroke-width="3"/>
<line x1="1221.5" y1="3.02528e-07" x2="1221.5" y2="3036" stroke="#FFEFD6" stroke-width="3"/>
<line x1="1296.5" y1="3.02528e-07" x2="1296.5" y2="3036" stroke="#FFEFD6" stroke-width="3"/>
<line x1="1371.5" y1="3.02528e-07" x2="1371.5" y2="3036" stroke="#FFEFD6" stroke-width="3"/>
<line x1="1446.5" y1="3.02528e-07" x2="1446.5" y2="3036" stroke="#FFEFD6" stroke-width="3"/>
<line x1="1521.5" y1="3.02528e-07" x2="1521.5" y2="3036" stroke="#FFEFD6" stroke-width="3"/>
<line x1="1596.5" y1="3.02528e-07" x2="1596.5" y2="3036" stroke="#FFEFD6" stroke-width="3"/>
<line x1="1671.5" y1="3.02528e-07" x2="1671.5" y2="3036" stroke="#FFEFD6" stroke-width="3"/>
<line x1="1746.5" y1="3.02528e-07" x2="1746.5" y2="3036" stroke="#FFEFD6" stroke-width="3"/>
<line x1="1821.5" y1="3.02528e-07" x2="1821.5" y2="3036" stroke="#FFEFD6" stroke-width="3"/>
<line x1="1896.5" y1="3.02528e-07" x2="1896.5" y2="3036" stroke="#FFEFD6" stroke-width="3"/>
<line x1="1920" y1="22" x2="-1.31334e-07" y2="21.9998" stroke="#FFEFD6" stroke-width="3"/>
<line x1="1920" y1="98" x2="-1.31334e-07" y2="97.9998" stroke="#FFEFD6" stroke-width="3"/>
<line x1="1920" y1="174" x2="-1.31334e-07" y2="174" stroke="#FFEFD6" stroke-width="3"/>
<line x1="1920" y1="250" x2="-1.31334e-07" y2="250" stroke="#FFEFD6" stroke-width="3"/>
<line x1="1920" y1="326" x2="-1.31334e-07" y2="326" stroke="#FFEFD6" stroke-width="3"/>
<line x1="1920" y1="402" x2="-1.31334e-07" y2="402" stroke="#FFEFD6" stroke-width="3"/>
<line x1="1920" y1="478" x2="-1.31334e-07" y2="478" stroke="#FFEFD6" stroke-width="3"/>
<line x1="1920" y1="554" x2="-1.31334e-07" y2="554" stroke="#FFEFD6" stroke-width="3"/>
<line x1="1920" y1="630" x2="-1.31334e-07" y2="630" stroke="#FFEFD6" stroke-width="3"/>
<line x1="1920" y1="706" x2="-1.31334e-07" y2="706" stroke="#FFEFD6" stroke-width="3"/>
<line x1="1920" y1="782" x2="-1.31334e-07" y2="782" stroke="#FFEFD6" stroke-width="3"/>
<line x1="1920" y1="858" x2="-1.31334e-07" y2="858" stroke="#FFEFD6" stroke-width="3"/>
<line x1="1920" y1="934" x2="-1.31334e-07" y2="934" stroke="#FFEFD6" stroke-width="3"/>
<line x1="1920" y1="1010" x2="-1.31334e-07" y2="1010" stroke="#FFEFD6" stroke-width="3"/>
<line x1="1920" y1="1086" x2="-1.31334e-07" y2="1086" stroke="#FFEFD6" stroke-width="3"/>
<line x1="1920" y1="1162" x2="-1.31334e-07" y2="1162" stroke="#FFEFD6" stroke-width="3"/>
<line x1="1920" y1="1238" x2="-1.31334e-07" y2="1238" stroke="#FFEFD6" stroke-width="3"/>
<line x1="1920" y1="1314" x2="-1.31334e-07" y2="1314" stroke="#FFEFD6" stroke-width="3"/>
<line x1="1920" y1="1390" x2="-1.31334e-07" y2="1390" stroke="#FFEFD6" stroke-width="3"/>
<line x1="1920" y1="1466" x2="-1.31334e-07" y2="1466" stroke="#FFEFD6" stroke-width="3"/>
<line x1="1920" y1="1542" x2="-1.31334e-07" y2="1542" stroke="#FFEFD6" stroke-width="3"/>
<line x1="1920" y1="1618" x2="-1.31334e-07" y2="1618" stroke="#FFEFD6" stroke-width="3"/>
<line x1="1920" y1="1694" x2="-1.31334e-07" y2="1694" stroke="#FFEFD6" stroke-width="3"/>
<line x1="1920" y1="1770" x2="-1.31334e-07" y2="1770" stroke="#FFEFD6" stroke-width="3"/>
<line x1="1920" y1="1846" x2="-1.31334e-07" y2="1846" stroke="#FFEFD6" stroke-width="3"/>
<line x1="1920" y1="1922" x2="-1.31334e-07" y2="1922" stroke="#FFEFD6" stroke-width="3"/>
<line x1="1920" y1="1998" x2="-1.31334e-07" y2="1998" stroke="#FFEFD6" stroke-width="3"/>
<line x1="1920" y1="2074" x2="-1.31334e-07" y2="2074" stroke="#FFEFD6" stroke-width="3"/>
<line x1="1920" y1="2150" x2="-1.31334e-07" y2="2150" stroke="#FFEFD6" stroke-width="3"/>
<line x1="1920" y1="2226" x2="-1.31334e-07" y2="2226" stroke="#FFEFD6" stroke-width="3"/>
<line x1="1920" y1="2302" x2="-1.31334e-07" y2="2302" stroke="#FFEFD6" stroke-width="3"/>
</g>
<defs>
<clipPath id="clip0_105_505">
<rect width="1920" height="2325" fill="white"/>
</clipPath>
</defs>
</svg>
