<svg width="65" height="83" viewBox="0 0 65 83" fill="none" xmlns="http://www.w3.org/2000/svg">
<path d="M32.375 0.702148C32.5052 0.791595 32.6529 0.904089 32.8047 1.03223C33.0394 1.23039 33.2644 1.44493 33.4268 1.61914C33.4941 1.6914 33.5437 1.75278 33.5791 1.79785C33.5744 4.57421 33.4247 7.74587 33.3477 10.9229C33.2698 14.1325 33.2683 17.3335 33.584 20.0342C33.5873 20.0624 33.594 20.0897 33.6016 20.1162C33.6847 20.6348 33.9749 21.8203 34.2773 22.9746C34.6099 24.244 34.9793 25.5608 35.1553 26.0762V26.0781C36.0175 28.5817 37.9747 31.2951 40.2832 33.5938C42.5929 35.8935 45.3107 37.8344 47.749 38.75H47.75C50.4575 39.7642 53.3908 40.1687 56.3086 40.457C58.9813 40.7212 61.6232 40.8875 64.1484 41.3164C63.2876 42.398 61.8614 42.7304 60.0859 42.7627C59.0594 42.7813 57.9798 42.7002 56.8975 42.6367C55.8315 42.5742 54.759 42.5285 53.8105 42.6377C46.7334 43.4476 39.4947 48.2207 36.3701 54.7959C36.1038 55.3443 35.4083 57.2751 34.791 59.0791C34.4791 59.9907 34.1814 60.8854 33.9619 61.5811C33.8524 61.9283 33.7617 62.2297 33.6973 62.46C33.6652 62.5746 33.6383 62.6765 33.6191 62.7598C33.6045 62.8234 33.5801 62.9311 33.5801 63.0264V81.2021C33.545 81.2473 33.4952 81.3088 33.4277 81.3818C33.2668 81.5558 33.0438 81.7709 32.8105 81.9688C32.686 82.0744 32.5637 82.1687 32.4521 82.249C32.3994 80.8092 32.4587 79.3314 32.5166 77.8301C32.5748 76.3213 32.6315 74.7888 32.5596 73.2861L32.5205 72.6445C32.3683 70.5704 32.0377 67.5932 31.5732 64.6641C31.1103 61.7443 30.5086 58.8338 29.8057 56.9131V56.9121L29.6855 56.5986C28.4084 53.3579 25.8384 50.1441 22.7627 47.6172C19.5891 45.0099 15.82 43.0865 12.2803 42.6387H12.2812C11.2292 42.5027 10.1455 42.5073 9.07812 42.543C7.99617 42.5791 6.95219 42.6458 5.9082 42.6436C4.27871 42.6401 2.75696 42.4641 1.39648 41.7744L16.3428 39.0625C16.3682 39.0579 16.3935 39.0513 16.418 39.043C21.3756 37.3536 25.019 34.6988 27.7305 30.2051L27.9902 29.7646C30.6593 25.13 31.2765 20.157 31.4863 15.1494C31.6897 10.2954 31.517 5.46213 32.375 0.702148Z" fill="#E29527" stroke="#012B12" stroke-width="1.03946" stroke-linejoin="round"/>
</svg>
